<?xml version="1.0" encoding="UTF-8"?>
<!DOCTYPE svg PUBLIC "-//W3C//DTD SVG 1.1//EN" "http://www.w3.org/Graphics/SVG/1.1/DTD/svg11.dtd">
<svg xmlns="http://www.w3.org/2000/svg" version="1.1" width="259px" height="194px" style="shape-rendering:geometricPrecision; text-rendering:geometricPrecision; image-rendering:optimizeQuality; fill-rule:evenodd; clip-rule:evenodd" xmlns:xlink="http://www.w3.org/1999/xlink">
<g><path style="opacity:1" fill="#1b2a2f" d="M 169.5,30.5 C 168.819,28.8415 167.985,27.1749 167,25.5C 152.359,34.1091 137.525,42.4424 122.5,50.5C 120.891,50.6114 119.225,50.278 117.5,49.5C 133.274,40.1075 149.274,30.9409 165.5,22C 166.784,21.3162 167.951,21.4829 169,22.5C 169.497,25.146 169.664,27.8127 169.5,30.5 Z"/></g>
<g><path style="opacity:1" fill="#0c212a" d="M 169.5,30.5 C 171.317,42.6334 172.15,54.9667 172,67.5C 168.021,70.2376 163.855,72.571 159.5,74.5C 156.057,76.1044 152.723,77.9377 149.5,80C 148.226,80.9772 148.226,81.8106 149.5,82.5C 149.063,84.0744 148.063,85.2411 146.5,86C 143.081,88.0409 139.414,89.5409 135.5,90.5C 133.758,92.5634 132.091,94.5634 130.5,96.5C 128.695,95.7629 127.029,94.7629 125.5,93.5C 122.772,96.0663 119.772,97.0663 116.5,96.5C 116.21,82.3974 115.21,68.3974 113.5,54.5C 113.343,51.656 114.676,49.9893 117.5,49.5C 119.225,50.278 120.891,50.6114 122.5,50.5C 137.525,42.4424 152.359,34.1091 167,25.5C 167.985,27.1749 168.819,28.8415 169.5,30.5 Z"/></g>
<g><path style="opacity:1" fill="#24596a" d="M 168.5,55.5 C 164.705,54.9585 162.705,56.6252 162.5,60.5C 161.468,58.9604 160.135,58.4604 158.5,59C 153.799,63.3658 149.466,68.0325 145.5,73C 141.843,72.8922 138.177,72.8922 134.5,73C 130.649,76.9048 125.982,78.4048 120.5,77.5C 119.404,71.1612 119.404,64.8278 120.5,58.5C 124.496,56.8373 128.163,54.6706 131.5,52C 130.451,51.5078 129.451,51.6744 128.5,52.5C 127.304,52.1543 127.304,51.6543 128.5,51C 133,48.5 137.5,46 142,43.5C 142.308,44.3081 142.808,44.9747 143.5,45.5C 151.245,41.5456 158.745,37.2123 166,32.5C 167.467,40.0579 168.301,47.7246 168.5,55.5 Z"/></g>
<g><path style="opacity:0.176" fill="#9fabb0" d="M 112.5,54.5 C 112.833,54.5 113.167,54.5 113.5,54.5C 115.21,68.3974 116.21,82.3974 116.5,96.5C 114.819,82.6761 113.485,68.6761 112.5,54.5 Z"/></g>
<g><path style="opacity:0.361" fill="#a4b3b9" d="M 181.5,66.5 C 179.958,67.3007 178.292,67.634 176.5,67.5C 177.848,66.8141 179.015,65.8141 180,64.5C 180.717,65.0442 181.217,65.7109 181.5,66.5 Z"/></g>
<g><path style="opacity:0.51" fill="#9ea9ac" d="M 185.5,66.5 C 185.56,65.9569 185.893,65.6236 186.5,65.5C 188.76,66.9118 191.093,67.9118 193.5,68.5C 191.167,68.5 188.833,68.5 186.5,68.5C 186.672,67.5084 186.338,66.8417 185.5,66.5 Z"/></g>
<g><path style="opacity:0.082" fill="#b4c1c5" d="M 195.5,70.5 C 196.345,71.6715 197.011,73.0048 197.5,74.5C 196.167,74.5 195.5,73.8333 195.5,72.5C 195.5,71.8333 195.5,71.1667 195.5,70.5 Z"/></g>
<g><path style="opacity:1" fill="#103340" d="M 181.5,66.5 C 182.961,67.6857 184.295,67.6857 185.5,66.5C 186.338,66.8417 186.672,67.5084 186.5,68.5C 180.981,71.2279 177.647,75.5612 176.5,81.5C 175.5,81.5 174.5,81.5 173.5,81.5C 172.833,80.5 172.167,79.5 171.5,78.5C 169.144,73.1104 170.811,69.4437 176.5,67.5C 178.292,67.634 179.958,67.3007 181.5,66.5 Z"/></g>
<g><path style="opacity:0.596" fill="#dcebee" d="M 159.5,74.5 C 160.568,75.4345 161.901,75.7678 163.5,75.5C 163.719,76.675 163.386,77.675 162.5,78.5C 158.844,80.1964 155.511,82.1964 152.5,84.5C 151.5,83.8333 150.5,83.1667 149.5,82.5C 148.226,81.8106 148.226,80.9772 149.5,80C 152.723,77.9377 156.057,76.1044 159.5,74.5 Z"/></g>
<g><path style="opacity:0.667" fill="#b1a8a1" d="M 171.5,78.5 C 172.167,79.5 172.833,80.5 173.5,81.5C 173.5,82.5 173.5,83.5 173.5,84.5C 172.857,86.0764 171.857,87.4097 170.5,88.5C 171.051,85.1933 171.384,81.8599 171.5,78.5 Z"/></g>
<g><path style="opacity:1" fill="#11a8d0" d="M 168.5,55.5 C 169.717,59.0343 169.717,62.5343 168.5,66C 152.919,74.7068 137.419,83.5402 122,92.5C 121.499,87.4918 120.999,82.4918 120.5,77.5C 125.982,78.4048 130.649,76.9048 134.5,73C 138.177,72.8922 141.843,72.8922 145.5,73C 149.466,68.0325 153.799,63.3658 158.5,59C 160.135,58.4604 161.468,58.9604 162.5,60.5C 162.705,56.6252 164.705,54.9585 168.5,55.5 Z"/></g>
<g><path style="opacity:1" fill="#0e1d25" d="M 186.5,68.5 C 188.833,68.5 191.167,68.5 193.5,68.5C 194.833,68.5 195.5,69.1667 195.5,70.5C 195.5,71.1667 195.5,71.8333 195.5,72.5C 194.518,71.8592 193.518,71.1925 192.5,70.5C 186.259,72.4073 181.925,76.4073 179.5,82.5C 181.594,86.3838 181.927,90.3838 180.5,94.5C 179.5,94.5 178.5,94.5 177.5,94.5C 177.421,95.9305 177.754,97.2638 178.5,98.5C 178.043,99.2975 177.376,99.6309 176.5,99.5C 171.672,97.5185 169.672,93.8519 170.5,88.5C 171.857,87.4097 172.857,86.0764 173.5,84.5C 173.5,83.5 173.5,82.5 173.5,81.5C 174.5,81.5 175.5,81.5 176.5,81.5C 177.647,75.5612 180.981,71.2279 186.5,68.5 Z"/></g>
<g><path style="opacity:1" fill="#3b7a8a" d="M 176.5,91.5 C 175.811,92.7736 174.977,92.7736 174,91.5C 173.503,89.1902 173.337,86.8568 173.5,84.5C 174.688,83.3157 175.855,83.3157 177,84.5C 177.796,87.0385 177.629,89.3718 176.5,91.5 Z"/></g>
<g><path style="opacity:1" fill="#021d2b" d="M 176.5,91.5 C 174.384,89.9119 174.051,87.9119 175.5,85.5C 176.466,87.396 176.799,89.396 176.5,91.5 Z"/></g>
<g><path style="opacity:1" fill="#0a313e" d="M 195.5,72.5 C 195.5,73.8333 196.167,74.5 197.5,74.5C 200.549,81.6664 199.882,88.9997 195.5,96.5C 191.486,96.6655 187.486,96.4988 183.5,96C 182.263,95.7679 181.263,95.2679 180.5,94.5C 181.927,90.3838 181.594,86.3838 179.5,82.5C 181.925,76.4073 186.259,72.4073 192.5,70.5C 193.518,71.1925 194.518,71.8592 195.5,72.5 Z"/></g>
<g><path style="opacity:1" fill="#11323f" d="M 149.5,82.5 C 150.5,83.1667 151.5,83.8333 152.5,84.5C 159.171,85.9365 159.837,88.4365 154.5,92C 148.706,94.9663 143.039,98.1329 137.5,101.5C 135.15,100.139 132.816,98.8056 130.5,97.5C 130.5,97.1667 130.5,96.8333 130.5,96.5C 132.091,94.5634 133.758,92.5634 135.5,90.5C 139.414,89.5409 143.081,88.0409 146.5,86C 148.063,85.2411 149.063,84.0744 149.5,82.5 Z"/></g>
<g><path style="opacity:1" fill="#023140" d="M 258.5,88.5 C 258.5,123.5 258.5,158.5 258.5,193.5C 172.167,193.5 85.8333,193.5 -0.5,193.5C -0.5,185.5 -0.5,177.5 -0.5,169.5C 20.6987,167.022 41.6987,163.356 62.5,158.5C 71.1011,162.717 79.6011,167.05 88,171.5C 102.272,164.069 116.439,156.403 130.5,148.5C 132.5,147.5 134.5,146.5 136.5,145.5C 143.752,148.378 150.918,151.378 158,154.5C 160.034,154.646 161.701,153.98 163,152.5C 164.474,149.244 165.64,145.911 166.5,142.5C 161.788,142.227 157.955,140.227 155,136.5C 154.487,137.527 153.987,138.527 153.5,139.5C 151.517,139.843 150.183,139.176 149.5,137.5C 150.848,136.399 152.348,135.399 154,134.5C 157.179,128.806 160.345,123.139 163.5,117.5C 164.69,115.645 166.023,113.812 167.5,112C 166.906,111.536 166.239,111.369 165.5,111.5C 169.145,108.862 172.812,106.196 176.5,103.5C 177.167,103.167 177.833,102.833 178.5,102.5C 186.439,101.595 194.106,99.9286 201.5,97.5C 207.119,98.347 210.286,101.68 211,107.5C 226.641,100.675 242.474,94.3421 258.5,88.5 Z"/></g>
<g><path style="opacity:1" fill="#10232a" d="M 112.5,54.5 C 113.485,68.6761 114.819,82.6761 116.5,96.5C 116.439,98.5922 115.439,100.092 113.5,101C 109.78,102.86 106.114,104.693 102.5,106.5C 100.61,106.297 99.1096,106.963 98,108.5C 97.4926,107.004 97.9926,105.837 99.5,105C 104.219,102.891 108.719,100.391 113,97.5C 112.927,90.8174 112.427,84.1507 111.5,77.5C 111.737,76.209 111.404,75.209 110.5,74.5C 111.751,71.2074 111.751,67.8741 110.5,64.5C 109.893,64.6236 109.56,64.9569 109.5,65.5C 104.395,67.8869 99.3951,70.5536 94.5,73.5C 93.3044,73.1543 93.3044,72.6543 94.5,72C 96.3325,71.2515 97.9991,70.2515 99.5,69C 95.7256,69.5537 92.3922,71.2203 89.5,74C 90.1667,74.3333 90.8333,74.6667 91.5,75C 89.7513,76.2915 87.918,77.4582 86,78.5C 85.5065,80.1341 85.3398,81.8008 85.5,83.5C 84.7784,83.0825 84.2784,82.4158 84,81.5C 82.6703,82.5822 81.1703,83.2488 79.5,83.5C 78.1667,83.1667 76.8333,82.8333 75.5,82.5C 80.4642,81.5088 83.4642,78.5088 84.5,73.5C 76.8269,77.0877 69.3269,81.0877 62,85.5C 61.8324,93.4966 61.9991,101.497 62.5,109.5C 63.5,109.5 64.5,109.5 65.5,109.5C 65.4167,106.854 65.4167,104.687 65.5,103C 67.1162,103.372 68.7829,104.039 70.5,105C 69.5,106.667 68.1667,108 66.5,109C 67.1667,109.333 67.8333,109.667 68.5,110C 67.1667,110.667 65.8333,111.333 64.5,112C 65.7839,112.684 66.9505,112.517 68,111.5C 68.7826,113.433 68.2826,114.933 66.5,116C 70.6656,118.179 70.4989,120.013 66,121.5C 65.0426,118.621 65.5426,116.121 67.5,114C 66.2068,113.51 64.8734,113.343 63.5,113.5C 63.2731,118.098 64.1064,122.432 66,126.5C 70.3898,123.941 74.8898,121.608 79.5,119.5C 83.6733,118.163 87.5066,116.163 91,113.5C 91.3826,114.056 91.8826,114.389 92.5,114.5C 92.8333,114.5 93.1667,114.5 93.5,114.5C 89.9485,118.292 85.6152,121.126 80.5,123C 78.1631,124.634 76.1631,126.467 74.5,128.5C 72.7708,127.883 71.2708,126.883 70,125.5C 67.6667,126.833 65.3333,128.167 63,129.5C 62.586,129.043 62.086,128.709 61.5,128.5C 60.8331,123.683 60.1665,119.017 59.5,114.5C 58.21,104.084 57.5434,93.7504 57.5,83.5C 75.0044,73.2468 92.6711,63.2468 110.5,53.5C 111.183,53.8627 111.85,54.1961 112.5,54.5 Z"/></g>
<g><path style="opacity:1" fill="#15aad1" d="M 110.5,74.5 C 111.404,75.209 111.737,76.209 111.5,77.5C 109.745,78.0722 108.078,78.9055 106.5,80C 100.692,86.7106 94.0255,92.2106 86.5,96.5C 86.5,93.8333 86.5,91.1667 86.5,88.5C 94.5355,83.8184 102.535,79.1517 110.5,74.5 Z"/></g>
<g><path style="opacity:1" fill="#08657f" d="M 110.5,74.5 C 102.535,79.1517 94.5355,83.8184 86.5,88.5C 86.1667,87.8333 85.8333,87.1667 85.5,86.5C 88.6485,84.7536 91.9818,83.0869 95.5,81.5C 95.8942,78.8653 97.0608,78.1986 99,79.5C 102.937,79.0024 103.77,77.5024 101.5,75C 103.952,74.7105 106.285,74.0438 108.5,73C 109.073,70.5652 109.407,68.0652 109.5,65.5C 109.56,64.9569 109.893,64.6236 110.5,64.5C 111.751,67.8741 111.751,71.2074 110.5,74.5 Z"/></g>
<g><path style="opacity:1" fill="#128cae" d="M 109.5,65.5 C 109.407,68.0652 109.073,70.5652 108.5,73C 106.285,74.0438 103.952,74.7105 101.5,75C 103.77,77.5024 102.937,79.0024 99,79.5C 97.0608,78.1986 95.8942,78.8653 95.5,81.5C 91.9818,83.0869 88.6485,84.7536 85.5,86.5C 85.5,85.5 85.5,84.5 85.5,83.5C 85.3398,81.8008 85.5065,80.1341 86,78.5C 87.918,77.4582 89.7513,76.2915 91.5,75C 90.8333,74.6667 90.1667,74.3333 89.5,74C 92.3922,71.2203 95.7256,69.5537 99.5,69C 97.9991,70.2515 96.3325,71.2515 94.5,72C 93.3044,72.6543 93.3044,73.1543 94.5,73.5C 99.3951,70.5536 104.395,67.8869 109.5,65.5 Z"/></g>
<g><path style="opacity:0.988" fill="#b29988" d="M 180.5,94.5 C 181.263,95.2679 182.263,95.7679 183.5,96C 187.486,96.4988 191.486,96.6655 195.5,96.5C 197.735,96.2053 199.735,96.5386 201.5,97.5C 194.106,99.9286 186.439,101.595 178.5,102.5C 178.218,101.222 177.551,100.222 176.5,99.5C 177.376,99.6309 178.043,99.2975 178.5,98.5C 177.754,97.2638 177.421,95.9305 177.5,94.5C 178.5,94.5 179.5,94.5 180.5,94.5 Z"/></g>
<g><path style="opacity:1" fill="#c6a188" d="M 176.5,103.5 C 172.812,106.196 169.145,108.862 165.5,111.5C 163.77,110.974 162.436,109.974 161.5,108.5C 161.811,107.522 162.478,106.855 163.5,106.5C 164.609,107.59 165.609,107.59 166.5,106.5C 165.001,103.667 162.667,102.001 159.5,101.5C 160.55,100.571 160.55,99.9046 159.5,99.5C 161.455,97.6742 163.788,97.1742 166.5,98C 170.566,98.6226 173.899,100.456 176.5,103.5 Z"/></g>
<g><path style="opacity:1" fill="#032f3d" d="M 111.5,77.5 C 112.427,84.1507 112.927,90.8174 113,97.5C 108.719,100.391 104.219,102.891 99.5,105C 97.9926,105.837 97.4926,107.004 98,108.5C 99.1096,106.963 100.61,106.297 102.5,106.5C 99.8981,108.81 96.8981,110.643 93.5,112C 92.7476,112.671 92.4142,113.504 92.5,114.5C 91.8826,114.389 91.3826,114.056 91,113.5C 87.5066,116.163 83.6733,118.163 79.5,119.5C 83.4346,116.857 87.4346,114.19 91.5,111.5C 90.6086,110.41 89.6086,110.41 88.5,111.5C 87.2594,106.575 86.5927,101.575 86.5,96.5C 94.0255,92.2106 100.692,86.7106 106.5,80C 108.078,78.9055 109.745,78.0722 111.5,77.5 Z"/></g>
<g><path style="opacity:1" fill="#1b6378" d="M 109.5,86.5 C 110.239,86.369 110.906,86.5357 111.5,87C 109.939,87.941 108.605,89.1076 107.5,90.5C 108.391,91.5896 109.391,91.5896 110.5,90.5C 111.696,90.8457 111.696,91.3457 110.5,92C 108.919,92.7065 107.419,93.5399 106,94.5C 103.964,91.1033 101.964,91.4366 100,95.5C 99.2496,94.8742 98.4162,94.3742 97.5,94C 101.732,91.7254 105.732,89.2254 109.5,86.5 Z"/></g>
<g><path style="opacity:1" fill="#031418" d="M 75.5,82.5 C 73.0144,83.4616 73.0144,84.2949 75.5,85C 73.6951,85.972 72.0284,87.1387 70.5,88.5C 70.8333,89.5 71.5,90.1667 72.5,90.5C 73.8498,89.0499 75.5165,88.3832 77.5,88.5C 78.0577,87.2101 79.0577,86.3768 80.5,86C 78.3808,85.6582 78.0474,84.8249 79.5,83.5C 81.1703,83.2488 82.6703,82.5822 84,81.5C 84.2784,82.4158 84.7784,83.0825 85.5,83.5C 85.5,84.5 85.5,85.5 85.5,86.5C 85.8333,87.1667 86.1667,87.8333 86.5,88.5C 86.5,91.1667 86.5,93.8333 86.5,96.5C 86.5927,101.575 87.2594,106.575 88.5,111.5C 89.6086,110.41 90.6086,110.41 91.5,111.5C 87.4346,114.19 83.4346,116.857 79.5,119.5C 74.8898,121.608 70.3898,123.941 66,126.5C 64.1064,122.432 63.2731,118.098 63.5,113.5C 64.8734,113.343 66.2068,113.51 67.5,114C 65.5426,116.121 65.0426,118.621 66,121.5C 70.4989,120.013 70.6656,118.179 66.5,116C 68.2826,114.933 68.7826,113.433 68,111.5C 66.9505,112.517 65.7839,112.684 64.5,112C 65.8333,111.333 67.1667,110.667 68.5,110C 67.8333,109.667 67.1667,109.333 66.5,109C 68.1667,108 69.5,106.667 70.5,105C 68.7829,104.039 67.1162,103.372 65.5,103C 65.4167,104.687 65.4167,106.854 65.5,109.5C 64.5,109.5 63.5,109.5 62.5,109.5C 61.9991,101.497 61.8324,93.4966 62,85.5C 69.3269,81.0877 76.8269,77.0877 84.5,73.5C 83.4642,78.5088 80.4642,81.5088 75.5,82.5 Z"/></g>
<g><path style="opacity:1" fill="#163a44" d="M 77.5,88.5 C 78.3094,89.4687 79.3094,90.3021 80.5,91C 74.2458,93.5992 74.5791,95.9325 81.5,98C 78.0879,99.4545 74.9212,101.288 72,103.5C 71.5439,102.256 72.0439,101.423 73.5,101C 72.8333,100.667 72.1667,100.333 71.5,100C 73.497,98.8469 73.8304,97.3469 72.5,95.5C 71.6043,96.5063 70.9377,96.5063 70.5,95.5C 72.3359,94.081 74.3359,92.9143 76.5,92C 75.8333,91.6667 75.1667,91.3333 74.5,91C 75.5707,90.1482 76.5707,89.3149 77.5,88.5 Z"/></g>
<g><path style="opacity:1" fill="#1c5161" d="M 75.5,82.5 C 76.8333,82.8333 78.1667,83.1667 79.5,83.5C 78.0474,84.8249 78.3808,85.6582 80.5,86C 79.0577,86.3768 78.0577,87.2101 77.5,88.5C 75.5165,88.3832 73.8498,89.0499 72.5,90.5C 71.5,90.1667 70.8333,89.5 70.5,88.5C 72.0284,87.1387 73.6951,85.972 75.5,85C 73.0144,84.2949 73.0144,83.4616 75.5,82.5 Z"/></g>
<g><path style="opacity:1" fill="#171d20" d="M 159.5,99.5 C 160.55,99.9046 160.55,100.571 159.5,101.5C 162.667,102.001 165.001,103.667 166.5,106.5C 165.609,107.59 164.609,107.59 163.5,106.5C 162.478,106.855 161.811,107.522 161.5,108.5C 160.506,105.876 159.506,103.21 158.5,100.5C 158.5,99.8333 158.833,99.5 159.5,99.5 Z"/></g>
<g><path style="opacity:0.757" fill="#d9ecef" d="M 130.5,96.5 C 130.5,96.8333 130.5,97.1667 130.5,97.5C 123.767,102.2 116.434,105.866 108.5,108.5C 104.981,111.421 101.314,114.087 97.5,116.5C 95.9382,116.267 94.6049,115.6 93.5,114.5C 93.1667,114.5 92.8333,114.5 92.5,114.5C 92.4142,113.504 92.7476,112.671 93.5,112C 96.8981,110.643 99.8981,108.81 102.5,106.5C 106.114,104.693 109.78,102.86 113.5,101C 115.439,100.092 116.439,98.5922 116.5,96.5C 119.772,97.0663 122.772,96.0663 125.5,93.5C 127.029,94.7629 128.695,95.7629 130.5,96.5 Z"/></g>
<g><path style="opacity:0.231" fill="#d6e4e7" d="M 158.5,100.5 C 159.506,103.21 160.506,105.876 161.5,108.5C 162.436,109.974 163.77,110.974 165.5,111.5C 166.239,111.369 166.906,111.536 167.5,112C 166.023,113.812 164.69,115.645 163.5,117.5C 160.316,113.138 157.983,108.304 156.5,103C 157.066,102.005 157.733,101.172 158.5,100.5 Z"/></g>
<g><path style="opacity:1" fill="#15323d" d="M 135.5,132.5 C 134.249,130.618 133.082,128.618 132,126.5C 131.085,127.328 130.419,128.328 130,129.5C 129.311,128.643 128.478,127.977 127.5,127.5C 125.227,128.651 122.894,129.651 120.5,130.5C 121.833,131.5 121.833,132.5 120.5,133.5C 122.078,134.298 123.744,134.798 125.5,135C 124.207,135.49 122.873,135.657 121.5,135.5C 121.5,136.5 121.5,137.5 121.5,138.5C 123.415,138.216 125.081,138.549 126.5,139.5C 122.944,141.94 119.277,141.94 115.5,139.5C 113.447,139.598 111.78,138.931 110.5,137.5C 109.194,136.533 108.527,135.199 108.5,133.5C 118.941,124.775 129.941,116.775 141.5,109.5C 146.981,110.736 151.647,113.236 155.5,117C 149.377,122.892 142.71,128.058 135.5,132.5 Z"/></g>
<g><path style="opacity:1" fill="#d8edf0" d="M 59.5,114.5 C 60.1665,119.017 60.8331,123.683 61.5,128.5C 62.086,128.709 62.586,129.043 63,129.5C 65.3333,128.167 67.6667,126.833 70,125.5C 71.2708,126.883 72.7708,127.883 74.5,128.5C 74.5,128.833 74.5,129.167 74.5,129.5C 69.7226,132.06 65.0559,134.893 60.5,138C 58.8008,138.958 56.9674,139.458 55,139.5C 46.8125,137.578 38.6459,135.578 30.5,133.5C 29.1667,132.5 29.1667,131.5 30.5,130.5C 40.2007,125.11 49.8674,119.777 59.5,114.5 Z"/></g>
<g><path style="opacity:1" fill="#123340" d="M 93.5,114.5 C 94.6049,115.6 95.9382,116.267 97.5,116.5C 100.348,117.17 101.848,118.837 102,121.5C 95.4177,125.207 88.9177,129.041 82.5,133C 79.539,132.69 76.8723,131.524 74.5,129.5C 74.5,129.167 74.5,128.833 74.5,128.5C 76.1631,126.467 78.1631,124.634 80.5,123C 85.6152,121.126 89.9485,118.292 93.5,114.5 Z"/></g>
<g><path style="opacity:0.231" fill="#ccd6da" d="M 108.5,133.5 C 108.527,135.199 109.194,136.533 110.5,137.5C 106.372,137.425 105.705,136.091 108.5,133.5 Z"/></g>
<g><path style="opacity:1" fill="#cea286" d="M 135.5,132.5 C 135.369,133.376 135.702,134.043 136.5,134.5C 140.809,136.626 145.143,137.626 149.5,137.5C 150.183,139.176 151.517,139.843 153.5,139.5C 157.487,140.211 158.987,142.544 158,146.5C 157.275,147.059 156.442,147.392 155.5,147.5C 149.802,145.767 144.136,143.934 138.5,142C 136.613,141.22 134.946,141.387 133.5,142.5C 131.287,141.227 128.954,140.227 126.5,139.5C 125.081,138.549 123.415,138.216 121.5,138.5C 121.5,137.5 121.5,136.5 121.5,135.5C 122.873,135.657 124.207,135.49 125.5,135C 123.744,134.798 122.078,134.298 120.5,133.5C 121.833,132.5 121.833,131.5 120.5,130.5C 122.894,129.651 125.227,128.651 127.5,127.5C 128.478,127.977 129.311,128.643 130,129.5C 130.419,128.328 131.085,127.328 132,126.5C 133.082,128.618 134.249,130.618 135.5,132.5 Z"/></g>
<g><path style="opacity:1" fill="#daebed" d="M 115.5,139.5 C 119.277,141.94 122.944,141.94 126.5,139.5C 128.954,140.227 131.287,141.227 133.5,142.5C 135.19,142.856 136.19,143.856 136.5,145.5C 134.5,146.5 132.5,147.5 130.5,148.5C 127.977,147.616 125.31,146.782 122.5,146C 120.271,143.6 117.937,141.433 115.5,139.5 Z"/></g>
<g><path style="opacity:1" fill="#1b2325" d="M 97.5,154.5 C 97.0269,153.094 96.0269,152.427 94.5,152.5C 94.0269,151.094 93.0269,150.427 91.5,150.5C 90.5084,150.672 89.8417,150.338 89.5,149.5C 89.0269,148.094 88.0269,147.427 86.5,147.5C 85.475,147.103 85.3083,146.437 86,145.5C 89.6644,140.876 93.8311,140.376 98.5,144C 101.5,146.167 104.5,148.333 107.5,150.5C 104.852,154.177 101.519,155.51 97.5,154.5 Z"/></g>
<g><path style="opacity:1" fill="#a98771" d="M 136.5,145.5 C 136.19,143.856 135.19,142.856 133.5,142.5C 134.946,141.387 136.613,141.22 138.5,142C 144.136,143.934 149.802,145.767 155.5,147.5C 156.442,147.392 157.275,147.059 158,146.5C 158.987,142.544 157.487,140.211 153.5,139.5C 153.987,138.527 154.487,137.527 155,136.5C 157.955,140.227 161.788,142.227 166.5,142.5C 165.64,145.911 164.474,149.244 163,152.5C 161.701,153.98 160.034,154.646 158,154.5C 150.918,151.378 143.752,148.378 136.5,145.5 Z"/></g>
<g><path style="opacity:0.176" fill="#cbd4d6" d="M 86.5,147.5 C 88.0269,147.427 89.0269,148.094 89.5,149.5C 87.9731,149.573 86.9731,148.906 86.5,147.5 Z"/></g>
<g><path style="opacity:0.231" fill="#b7c3c7" d="M 91.5,150.5 C 93.0269,150.427 94.0269,151.094 94.5,152.5C 92.9731,152.573 91.9731,151.906 91.5,150.5 Z"/></g>
<g><path style="opacity:0.176" fill="#c7d0d2" d="M 94.5,152.5 C 96.0269,152.427 97.0269,153.094 97.5,154.5C 95.9731,154.573 94.9731,153.906 94.5,152.5 Z"/></g>
</svg>
